<svg xmlns="http://www.w3.org/2000/svg" width="35" height="35" fill="#fff" stroke="#fff" transform="matrix(0 -1 -1 0 0 0)" viewBox="-29.7 -29.7 356.4 356.4"><path fill="#00897B" stroke="none" stroke-width="0" d="M148.5 316.914c31.475 3.955 64.954-9.973 87.452-32.337 21.2-21.073 14.225-56.873 28.636-83.061 16.207-29.453 62.026-44.794 60.192-78.361-1.792-32.791-45.125-44.94-68.205-68.302-21.202-21.461-33.427-53.615-61.95-63.442-28.827-9.932-60.146 1.278-88.88 11.476-27.48 9.754-53.39 23.72-72.451 45.786C14.25 70.72 5.97 98.766-1.416 126.945c-8.235 31.427-26.329 66.427-10.67 94.892 15.755 28.637 58.078 25.755 86.202 42.406 26.683 15.799 43.617 48.805 74.384 52.671"/><path d="M297 140.5h-35.016c-3.323-9.592-12.442-16.5-23.151-16.5-13.51 0-24.5 10.99-24.5 24.5s10.99 24.5 24.5 24.5c10.709 0 19.828-6.908 23.151-16.5H297v-16zm-49.667 8c0 4.686-3.813 8.5-8.5 8.5-4.686 0-8.5-3.814-8.5-8.5s3.814-8.5 8.5-8.5c4.687 0 8.5 3.814 8.5 8.5zM57.834 124c-10.709 0-19.828 6.908-23.151 16.5H0v16h34.683c3.323 9.592 12.442 16.5 23.151 16.5 13.51 0 24.5-10.99 24.5-24.5s-10.99-24.5-24.5-24.5zm0 33c-4.687 0-8.5-3.814-8.5-8.5s3.813-8.5 8.5-8.5c4.686 0 8.5 3.814 8.5 8.5s-3.814 8.5-8.5 8.5zM169.899 127.427c-14.557 0-21.867 8.862-27.741 15.982-5.51 6.679-8.697 10.164-15.398 10.164-6.702 0-9.89-3.485-15.399-10.164l-12.342 10.182c5.874 7.121 13.185 15.982 27.741 15.982s21.866-8.861 27.74-15.982c5.51-6.679 8.697-10.164 15.399-10.164 6.701 0 9.888 3.485 15.398 10.163l.009.011 12.333-10.192c-5.874-7.121-13.184-15.982-27.74-15.982z"/></svg>